<svg aria-hidden="true" style="position: absolute; width: 0; height: 0; overflow: hidden;" version="1.1" xmlns="http://www.w3.org/2000/svg" xmlns:xlink="http://www.w3.org/1999/xlink">
<defs>
<symbol id="icon-logo" viewBox="0 0 34 32">
<path d="M4.222 32l-2.489-2.489 18.222-18.222c-0.533-1.244-0.607-2.652-0.222-4.222s1.23-2.978 2.533-4.222c1.57-1.57 3.319-2.489 5.244-2.756s3.496 0.207 4.711 1.422c1.215 1.215 1.689 2.785 1.422 4.711s-1.185 3.674-2.756 5.244c-1.244 1.304-2.652 2.148-4.222 2.533s-2.978 0.311-4.222-0.222l-2.222 2.222 13.511 13.511-2.489 2.489-13.511-13.422-13.511 13.422zM9.466 16.8l-5.333-5.333c-1.6-1.6-2.4-3.511-2.4-5.733s0.8-4.133 2.4-5.733l11.022 11.111-5.689 5.689z"></path>
</symbol>
<symbol id="icon-hamburger-menu" viewBox="0 0 43 32">
<path d="M2 0h38.667c1.105 0 2 0.895 2 2s-0.895 2-2 2h-38.667c-1.105 0-2-0.895-2-2s0.895-2 2-2z"></path>
<path d="M2 10.98h38.667c1.105 0 2 0.895 2 2s-0.895 2-2 2h-38.667c-1.105 0-2-0.895-2-2s0.895-2 2-2z"></path>
<path d="M2 21.961h38.667c1.105 0 2 0.895 2 2s-0.895 2-2 2h-38.667c-1.105 0-2-0.895-2-2s0.895-2 2-2z"></path>
</symbol>
<symbol id="fb" viewBox="0 0 20 32">
     <path d="M20.48 10.818h-6.859v-3.072c0-1.585 0.163-2.584 3.041-2.584h3.635v-4.884c-1.769-0.144-3.547-0.215-5.328-0.212-5.279 0-9.132 2.545-9.132 7.218v3.534h-5.838v6.144l5.838-0.002v13.826h7.783v-13.829l5.966-0.002 0.893-6.138z"></path>
   </symbol>
   <symbol id="insta" viewBox="0 0 32 32">
     <path d="M8.831 0.066c-4.705 0-8.533 3.828-8.533 8.533v13.653c0 4.705 3.828 8.533 8.533 8.533h13.653c4.705 0 8.533-3.828 8.533-8.533v-13.653c0-4.705-3.828-8.533-8.533-8.533h-13.653zM8.831 3.48h13.653c2.823 0 5.12 2.297 5.12 5.12v13.653c0 2.823-2.297 5.12-5.12 5.12h-13.653c-2.823 0-5.12-2.297-5.12-5.12v-13.653c0-2.823 2.297-5.12 5.12-5.12zM24.191 5.186c-0.453 0-0.887 0.18-1.207 0.5s-0.5 0.754-0.5 1.207 0.18 0.887 0.5 1.207c0.32 0.32 0.754 0.5 1.207 0.5s0.887-0.18 1.207-0.5c0.32-0.32 0.5-0.754 0.5-1.207s-0.18-0.887-0.5-1.207c-0.32-0.32-0.754-0.5-1.207-0.5zM15.657 6.893c-4.705 0-8.533 3.828-8.533 8.533s3.828 8.533 8.533 8.533 8.533-3.828 8.533-8.533c0-4.705-3.828-8.533-8.533-8.533zM15.657 10.306c2.823 0 5.12 2.297 5.12 5.12s-2.297 5.12-5.12 5.12c-2.823 0-5.12-2.297-5.12-5.12s2.297-5.12 5.12-5.12z"></path>
   </symbol>
   <symbol id="pint" viewBox="0 0 32 32">
     <path d="M16.515 0.066c-8.483 0-15.36 6.877-15.36 15.36s6.877 15.36 15.36 15.36c8.483 0 15.36-6.877 15.36-15.36s-6.877-15.36-15.36-15.36zM16.515 3.138c6.786 0 12.288 5.502 12.288 12.288s-5.502 12.288-12.288 12.288c-1.13 0-2.219-0.164-3.258-0.45 0.327-0.659 0.62-1.353 0.78-1.968 0.177-0.676 0.9-3.432 0.9-3.432 0.47 0.897 1.844 1.659 3.306 1.659 4.352 0 7.488-4.002 7.488-8.976 0-4.769-3.891-8.337-8.898-8.337-6.229 0-9.534 4.18-9.534 8.733 0 2.117 1.126 4.752 2.928 5.592 0.273 0.128 0.42 0.072 0.483-0.192 0.049-0.201 0.293-1.182 0.402-1.638 0.035-0.144 0.019-0.271-0.099-0.414-0.596-0.723-1.074-2.051-1.074-3.291 0-3.184 2.41-6.264 6.516-6.264 3.545 0 6.027 2.417 6.027 5.871 0 3.903-1.971 6.606-4.536 6.606-1.416 0-2.48-1.169-2.139-2.607 0.407-1.716 1.197-3.568 1.197-4.806 0-1.107-0.592-2.031-1.824-2.031-1.448 0-2.613 1.496-2.613 3.504 0 1.278 0.432 2.142 0.432 2.142s-1.429 6.047-1.692 7.173c-0.13 0.556-0.174 1.214-0.177 1.872-4.083-1.998-6.903-6.182-6.903-11.034 0-6.786 5.502-12.288 12.288-12.288z"></path>
   </symbol>
   <symbol id="tik-tok" viewBox="0 0 31 32">
     <path d="M5.12 0.066c-2.807 0-5.12 2.313-5.12 5.12v20.48c0 2.807 2.313 5.12 5.12 5.12h20.48c2.807 0 5.12-2.313 5.12-5.12v-20.48c0-2.807-2.313-5.12-5.12-5.12h-20.48zM5.12 3.48h20.48c0.964 0 1.707 0.742 1.707 1.707v20.48c0 0.964-0.742 1.707-1.707 1.707h-20.48c-0.964 0-1.707-0.742-1.707-1.707v-20.48c0-0.964 0.742-1.707 1.707-1.707zM15.36 6.893v11.947c0 0.964-0.742 1.707-1.707 1.707s-1.707-0.742-1.707-1.707c0-0.964 0.742-1.707 1.707-1.707v-3.413c-2.807 0-5.12 2.313-5.12 5.12s2.313 5.12 5.12 5.12c2.807 0 5.12-2.313 5.12-5.12v-6.43c1.052 0.749 2.149 1.31 3.413 1.31v-3.413c-0.081 0-1.258-0.374-2.080-1.090s-1.333-1.615-1.333-2.323h-3.413z"></path>
   </symbol>
   <symbol id="x-file" viewBox="0 0 32 32">
     <path d="M0.877 0.066l11.176 17.307-10.589 13.413h4.159l8.291-10.53 6.799 10.53h10.884l-11.69-18.133 9.909-12.587h-4.095l-7.669 9.707-6.257-9.707h-10.918zM6.926 3.48h3.227l15.4 23.893h-3.199l-15.428-23.893z"></path>
   </symbol>
    <symbol id="icon-bookmark" viewBox="0 0 26 32">
      <path d="M25.794 1.2c-9.734 0-15.191 0-24.925 0v29.6l12.504-5.513 12.421 5.513v-29.6z"></path>
    </symbol>
    <symbol id="icon-star" viewBox="0 0 37 32">
      <path d="m29.677 31.086-10.662-7.317-10.662 7.317 4.094-11.817-10.656-7.271h13.156L19.015.161l4.068 11.837h13.155l-10.655 7.271 4.094 11.817z"/>
    </symbol>
</defs>
</svg>
