<svg aria-hidden="true" style="position:absolute;width:0;height:0;overflow:hidden" xmlns="http://www.w3.org/2000/svg">
  <defs>
    <symbol id="logo" viewBox="0 0 31 32">
      <path d="M5.662 28.101l-1.812-1.812 13.265-13.265c-0.388-0.906-0.442-1.93-0.162-3.074s0.895-2.168 1.844-3.074c1.143-1.143 2.416-1.812 3.818-2.006s2.545 0.151 3.429 1.035c0.884 0.884 1.229 2.027 1.035 3.429s-0.863 2.675-2.006 3.818c-0.906 0.949-1.93 1.564-3.073 1.844s-2.168 0.227-3.073-0.162l-1.618 1.618 9.835 9.835-1.812 1.812-9.835-9.771-9.835 9.771zM9.48 17.036l-3.882-3.882c-1.165-1.165-1.747-2.556-1.747-4.174s0.582-3.009 1.747-4.174l8.024 8.088-4.141 4.141z"></path>
    </symbol>
    <symbol id="javascript" viewBox="0 0 32 32">
      <path fill="#f7df1e" style="fill:var(--color3, #f7df1e)" d="M0 0h32v32H0V0z"/>
      <path style="fill:var(--color4, #000)" d="m8.414 26.741 2.449-1.482c.473.838.902 1.546 1.933 1.546.988 0 1.611-.387 1.611-1.89V14.69h3.007v10.267c0 3.115-1.826 4.532-4.489 4.532-2.406 0-3.802-1.246-4.511-2.75zm10.634-.322 2.448-1.418c.645 1.053 1.482 1.826 2.964 1.826 1.246 0 2.041-.623 2.041-1.482 0-1.031-.816-1.396-2.191-1.997l-.752-.323c-2.17-.923-3.609-2.083-3.609-4.532 0-2.256 1.718-3.974 4.404-3.974 1.912 0 3.287.666 4.274 2.406l-2.341 1.504c-.516-.924-1.074-1.289-1.933-1.289-.881 0-1.439.558-1.439 1.289 0 .902.558 1.268 1.847 1.826l.752.322c2.556 1.096 3.995 2.212 3.995 4.726 0 2.707-2.127 4.189-4.983 4.189-2.792 0-4.597-1.332-5.477-3.072z"/>
    </symbol>
    <symbol id="icon-email" viewBox="0 0 34 32">
      <path d="M29.466 0h-25.6c-1.76 0-3.184 1.8-3.184 4l-0.016 24c0 2.2 1.44 4 3.2 4h25.6c1.76 0 3.2-1.8 3.2-4v-24c0-2.2-1.44-4-3.2-4zM29.466 28h-25.6v-20l12.8 10 12.8-10v20zM16.666 14l-12.8-10h25.6l-12.8 10z"></path>
    </symbol>
    
<!-- =====   FOOTER   ===== -->
   
  </defs>
</svg>
