<svg aria-hidden="true" style="position:absolute;width:0;height:0;overflow:hidden" xmlns="http://www.w3.org/2000/svg">
  <defs>
    <symbol id="logo" viewBox="0 0 31 32">
      <path d="M5.662 28.101l-1.812-1.812 13.265-13.265c-0.388-0.906-0.442-1.93-0.162-3.074s0.895-2.168 1.844-3.074c1.143-1.143 2.416-1.812 3.818-2.006s2.545 0.151 3.429 1.035c0.884 0.884 1.229 2.027 1.035 3.429s-0.863 2.675-2.006 3.818c-0.906 0.949-1.93 1.564-3.073 1.844s-2.168 0.227-3.073-0.162l-1.618 1.618 9.835 9.835-1.812 1.812-9.835-9.771-9.835 9.771zM9.48 17.036l-3.882-3.882c-1.165-1.165-1.747-2.556-1.747-4.174s0.582-3.009 1.747-4.174l8.024 8.088-4.141 4.141z"></path>
    </symbol>
    <symbol id="javascript" viewBox="0 0 32 32">
      <path fill="#f7df1e" style="fill:var(--color3, #f7df1e)" d="M0 0h32v32H0V0z"/>
      <path style="fill:var(--color4, #000)" d="m8.414 26.741 2.449-1.482c.473.838.902 1.546 1.933 1.546.988 0 1.611-.387 1.611-1.89V14.69h3.007v10.267c0 3.115-1.826 4.532-4.489 4.532-2.406 0-3.802-1.246-4.511-2.75zm10.634-.322 2.448-1.418c.645 1.053 1.482 1.826 2.964 1.826 1.246 0 2.041-.623 2.041-1.482 0-1.031-.816-1.396-2.191-1.997l-.752-.323c-2.17-.923-3.609-2.083-3.609-4.532 0-2.256 1.718-3.974 4.404-3.974 1.912 0 3.287.666 4.274 2.406l-2.341 1.504c-.516-.924-1.074-1.289-1.933-1.289-.881 0-1.439.558-1.439 1.289 0 .902.558 1.268 1.847 1.826l.752.322c2.556 1.096 3.995 2.212 3.995 4.726 0 2.707-2.127 4.189-4.983 4.189-2.792 0-4.597-1.332-5.477-3.072z"/>
    </symbol>
    <symbol id="icon-email" viewBox="0 0 34 32">
      <path d="M29.466 0h-25.6c-1.76 0-3.184 1.8-3.184 4l-0.016 24c0 2.2 1.44 4 3.2 4h25.6c1.76 0 3.2-1.8 3.2-4v-24c0-2.2-1.44-4-3.2-4zM29.466 28h-25.6v-20l12.8 10 12.8-10v20zM16.666 14l-12.8-10h25.6l-12.8 10z"></path>
    </symbol>
    <symbol id="icon-nestle" viewBox="0 0 123 32">
      <path d="M107.595 9.442c0-0.572-0.461-1.036-1.034-1.036h-1.531c-0.572 0-1.033 0.465-1.033 1.037v16.016c0 0.573 0.462 1.036 1.033 1.036h1.533c0.571 0 1.032-0.466 1.032-1.037v-16.017zM109.547 9.867v0.762c0 0.314 0.258 0.569 0.573 0.569h10.565c0.482 0 0.873-0.389 0.873-0.871v-1.289c0-0.482-0.396-0.918-0.873-0.871 0 0-10.215 1.002-10.542 1.039-0.165 0.014-0.317 0.091-0.428 0.213s-0.171 0.283-0.168 0.448v0zM100.994 26.497c-2.629 0-4.283-1.994-4.283-4.212l-0.001-6.409h-0.752c-0.095 0-0.189-0.019-0.277-0.055s-0.168-0.090-0.235-0.157c-0.068-0.067-0.121-0.147-0.157-0.235s-0.056-0.182-0.056-0.277v-1.073c0-0.401 0.326-0.723 0.728-0.723l0.75 0.001-0.001-3.94c0-0.558 0.449-1.010 1.008-1.010h1.495c0.556 0 1.008 0.456 1.008 1.013v3.937l2.328-0.001c0.401 0 0.729 0.322 0.729 0.723v1.073c0 0.401-0.326 0.724-0.726 0.724l-2.331-0.001 0.003 5.928c0 1.163 0.705 1.958 1.964 1.958h0.213c0.435 0 0.789 0.35 0.789 0.785v1.163c0 0.437-0.353 0.787-0.788 0.787l-1.405-0.001zM76.381 12.896c-4.249 0-6.632 3.325-6.632 6.829 0 3.734 2.552 7.021 6.66 7.021 2.811 0 5.582-1.481 6.106-3.913 0.071-0.328-0.15-0.759-0.612-0.761l-2.010 0.001c-0.364 0-0.662 0.175-0.841 0.438-0.575 0.843-1.417 1.29-2.662 1.29-1.76 0-2.98-1.386-3.071-2.924h8.542c0.787 0 1.139-0.428 1.139-1.153 0-3.416-2.023-6.828-6.618-6.828v0zM76.381 15.638c1.568 0 2.922 1.116 3.060 2.626h-6.097c0.138-1.51 1.469-2.626 3.037-2.626v0zM115.307 12.896c-4.25 0-6.633 3.325-6.633 6.829 0 3.734 2.552 7.021 6.66 7.021 2.811 0 5.583-1.481 6.106-3.913 0.071-0.328-0.15-0.759-0.612-0.761l-2.009 0.001c-0.366 0-0.664 0.175-0.843 0.438-0.575 0.843-1.416 1.29-2.662 1.29-1.76 0-2.98-1.386-3.071-2.924h8.541c0.787 0 1.139-0.428 1.139-1.153 0-3.416-2.024-6.828-6.617-6.828v0zM115.307 15.638c1.566 0 2.922 1.116 3.058 2.626h-6.096c0.136-1.51 1.468-2.626 3.038-2.626v0z"></path>
      <path d="M93.837 8.585h-27.67c-0.629 0-1.137 0.511-1.137 1.14l0.095 10.867c0 0-5.962-10.77-6.273-11.319-0.293-0.517-0.92-0.993-1.79-0.993h-2.275c-0.63 0-1.138 0.511-1.138 1.14l0.001 15.937c0 0.629 0.508 1.139 1.138 1.139h1.459c0.302-0.001 0.592-0.121 0.805-0.335s0.333-0.504 0.333-0.806l-0.092-11.172c0 0 6.020 10.877 6.277 11.306 0.347 0.579 0.936 1.008 1.787 1.008h2.090c0.63 0 1.138-0.51 1.138-1.139l-0.001-14.070h25.254c0.102 0 0.204-0.020 0.298-0.059s0.18-0.096 0.252-0.168c0.072-0.072 0.129-0.158 0.168-0.252s0.059-0.195 0.059-0.297v-1.15c-0.001-0.206-0.083-0.404-0.229-0.549s-0.345-0.227-0.55-0.227v0z"></path>
      <path d="M89.357 15.505c1.203 0 2.103 0.437 2.428 1.191 0.155 0.363 0.457 0.433 0.87 0.433h1.655c0.275 0 0.586-0.235 0.586-0.593 0-1.924-2.292-3.641-5.54-3.641-3.36 0-5.566 1.601-5.566 4.15 0 1.951 1.54 3.112 3.435 3.607 0.864 0.227 2.34 0.59 3.057 0.779 0.774 0.203 1.466 0.439 1.466 1.103 0 1.046-1.105 1.402-2.308 1.402-1.142 0-2.278-0.51-2.604-1.324-0.19-0.473-0.519-0.541-1.021-0.541h-1.683c-0.294 0-0.632 0.252-0.632 0.635v0.216c0 1.862 2.497 3.811 5.941 3.811 2.442 0 5.846-1.015 5.846-4.291 0-1.898-1.269-3.212-3.334-3.736-0.808-0.205-2.75-0.699-3.172-0.808-0.753-0.195-1.455-0.441-1.455-1.086 0-0.977 0.903-1.309 2.029-1.309v0zM28.107 4.903c0.147 0 0.288-0.058 0.392-0.162s0.162-0.245 0.162-0.392-0.058-0.288-0.162-0.392c-0.104-0.104-0.245-0.162-0.392-0.162s-0.288 0.058-0.392 0.162c-0.104 0.104-0.162 0.245-0.162 0.392s0.058 0.288 0.162 0.392c0.104 0.104 0.245 0.162 0.392 0.162zM20.659 3.921c0.124 0 0.242-0.049 0.33-0.137s0.137-0.206 0.137-0.33c0-0.124-0.049-0.242-0.137-0.33s-0.206-0.137-0.33-0.137c-0.124 0-0.242 0.049-0.33 0.137s-0.137 0.206-0.137 0.33c0 0.124 0.049 0.242 0.137 0.33s0.206 0.137 0.33 0.137zM15.076 15.331l-0.227-0.244c0.633-0.588 1.304-1.527 1.413-2.078 0.101-0.512 0.837-0.431 0.697 0.126-0.178 0.712-1.050 1.572-1.883 2.195zM10.351 4.116c-1.166 0.504-1.337 1.7-0.519 2.417 0.986 0.864 2.612 0.111 2.456-1.212 1.322 0.068 2.175-1.298 1.965-2.257 0.588-0.504 0.647-1.58-0.059-2.003-0.757-0.453-1.469-0.28-1.922 0.594-1.212-0.088-2.372 0.865-1.921 2.461l-0.561-0.245c-0.74-1.547 0.556-3.127 2.145-2.763 0.115-0.249 0.283-0.471 0.491-0.649s0.453-0.31 0.717-0.385c0.264-0.075 0.541-0.093 0.813-0.051s0.53 0.142 0.76 0.293c1.020 0.618 1.236 2.212 0.151 2.985 0.512 1.488-0.508 2.703-2.060 2.564-0.182 1.913-1.987 2.16-3.153 1.252-0.658-0.513-0.927-1.224-1.054-1.76-0.134-0.568-0.134-1.076-0.694-1.66-0.422-0.441-1.177-0.426-1.177-0.426 0-1.39-1.3-2.662-2.914-2.046-0.572-0.493-1.279-0.542-1.786 0.068-0.295 0.354-0.457 1.284 0.451 1.71-0.047 1.267 0.919 2.076 2.331 1.964 0.055 0.673 0.802 1.299 1.463 1.388l-0.006 0.338c-0.706-0.068-1.088 0.179-1.558 0.762-1.66-0.078-2.822 0.66-2.774 1.851-1.167 0.222-1.385 1.443-0.723 2.093s1.631 0.396 1.962-0.381c1.177 0.224 2.216-0.619 2.264-1.592 1.099 0 1.58-0.435 1.76-1.445l0.415 0.034c0.122 1.088-0.381 2.121-1.693 1.998-0.034 1.299-1.295 2.026-2.471 1.577-0.549 1.032-1.808 1.444-2.864 0.437-1.021-0.972-0.648-2.637 0.686-3.041 0.031-1.274 0.972-2.484 2.8-2.018 0 0 0.235-0.569 0.807-0.603-0.381-0.156-0.67-0.367-0.749-0.759-1.379 0.294-2.55-0.976-2.237-2.254-1.244-0.655-1.264-1.884-0.647-2.615 0.643-0.761 1.715-0.929 2.673-0.109 1.623-0.899 3.458 0.202 3.346 2.052 1.135-0.076 1.825 0.917 1.698 1.95 0.187-0.456 0.406-0.667 0.826-0.758l0.562 0.245z"></path>
      <path d="M13.14 1.896l0.274 0.196c-0.532 1.123-1.475 2.317-2.282 2.973l-0.308-0.232c0.572-0.931 1.8-2.467 2.316-2.937zM5.197 8.066l0.185 0.274c-0.673 0.689-1.917 1.609-2.578 1.928l-0.258-0.28c0.639-0.689 1.861-1.592 2.651-1.922v0zM6.806 4.728l-0.325 0.401c-0.88-0.577-2.618-2.13-3.010-2.69l0.274-0.28c0.841 0.426 2.483 1.89 3.060 2.568zM5.173 19.459c0.1 0.504 0.016 1.062 0.471 1.606 0.16 0.191 1.042 1.352 1.681 1.951-0.869 0.342-2.606 1.049-3.857 1.206-0.25 0.032-0.532 0.207-0.768 0.342-0.156 0.267-0.318 0.745-0.386 1.284-0.048 0.386-0.042 0.815-0.042 1.253 0 0.386 0.204 1.599 0.635 2.413s0.847 1.179 1.357 1.417c0.101-0.044 0.323-0.078 0.67-0.085 0.944-0.022 1.683 0.5 2.009 0.948 0.124 0.172 0.375 0.206 0.704 0.206 0.762 0 1.6-0.251 2.396-0.554 0.17-0.14 0.65-0.459 1.121-0.83 0.47-0.369 3.094-2.594 4.254-3.156 0.611 0.331 1.615 0.757 2.651 0.757 0.060 0 0.259 0.003 0.471-0.044 0.324-0.074 0.739-0.218 1.261-0.321 0.935-0.182 2.032-0.342 2.352-0.338 0.86 0.014 3.382 0.079 3.979 0.079 0.627 0 1.521-0.055 1.863-0.088 0.528-0.175 1.704-0.5 2.831-1.021 1.124-0.498 3.491-2.141 3.878-2.516 0.188-0.168 0.355-0.353 0.478-0.517 0.046-0.064 0.063-0.089 0.063-0.14l-0.013-1.66c0 0 0.566-0.628 0.782-0.845 0.021-0.020 0.022-0.049 0.019-0.070-0.097-0.322-0.194-1.324-0.139-2.34l-0.573-0.267c-0.026 1.067-0.342 2.107-0.916 3.008-0.852 0.135-2.477 0.639-3.062 1.305l0.322 0.092c0.549-0.303 1.138-0.515 1.81-0.515 0.594 0 0.856 0.156 0.856 0.323 0 0.117-0.112 0.398-0.155 0.487-0.051 0.102-0.085 0.231-0.185 0.34-0.812 0.891-1.764 1.644-2.818 2.23-0.747 0.418-1.451 0.699-2.553 1.011-0.33 0.093-0.782 0.227-1.076 0.328-0.415-0.013-2.584-0.076-3.851-0.076s-3.878 0.184-4.708 0.394c-0.377 0.095-0.471 0.247-0.909 0.247-0.818 0-1.891-0.415-2.55-0.734-0.095 0.028-0.334 0.134-0.572 0.252-0.468 0.233-1.508 1.676-2.113 1.239-0.309 0.633-1.642 1.232-2.098 1.889 0.050-0.343 0.588-2.572 0.639-3.018 0.009-0.079 0.016-0.143-0.034-0.227-0.487-0.813-1.848-1.33-2.615-1.48-0.225-0.044-0.336-0.075-0.487-0.109l-1.21-0.366-1.123 0.366 1.296 0.248-1.644 1.090c0.285-0.109 2.057-0.601 2.188-0.64 0.145-0.043 0.338-0.085 0.549-0.012 0.241 0.084 0.925 0.24 1.331 0.382 0.239 0.083 0.631 0.522 0.732 0.756 0.041 0.098 0.057 0.303 0.083 0.757 0.016 0.286-0.057 0.684-0.126 0.993-0.181 0.808-0.549 1.44-0.665 1.665-0.16 0.311-0.382 0.411-0.6 0.514-0.358 0.168-0.796 0.274-1.283 0.28-0.334 0.004-0.558-0.014-0.701-0.207-0.449-0.606-1.558-1.194-2.691-0.975-0.695-0.42-1.384-1.777-1.384-2.858 0-0.648 0.327-1.669 0.503-2.182 1.131-0.151 3.394-1.013 4.495-1.513 0.231-0.012 0.864-0.235 1.468-0.235 1.48 0 2.948 1.294 3.84 2.169 0.146-0.24 0.42-0.605 1.177-0.605 1.048 0 1.647 0.952 1.948 1.932l0.546-0.397c-0.109-0.609-0.398-1.172-0.829-1.616-0.362-0.362-1.050-0.662-1.589-0.662-0.324 0-0.661 0.072-0.873 0.072-0.749 0-1.054-0.334-1.606-0.714-0.597-0.413-1.707-1.011-2.5-1.011-0.51 0-0.74 0.2-1.161 0.201-0.619 0.004-0.849-0.254-1.146-0.622-0.13-0.162-0.757-0.718-0.924-0.942-0.096-0.128-0.267-0.654-0.329-0.918l-0.849-0.609z"></path>
      <path d="M6.024 20.069c0.18 0.192 0.353 0.405 0.578 0.577 0.217 0.164 0.491 0.307 0.749 0.453 0.364 0.206 0.776 0.442 1.185 0.572 0.358 0.108 0.824 0.152 1.26 0.152 0.622 0 1.357-0.128 1.965 0.155 0.408 0.191 0.435 0.621 0.759 0.747 0.504 0.196 1.906 0.242 2.683 0.242 1.539 0 3.203-0.195 4.187-0.43l-0.48-0.529c-0.68 0.108-2.677 0.326-3.593 0.326-1.291 0-2.51-0.206-2.51-0.741 0-0.369 0.398-0.903 1.154-0.903 0.813 0 2.041 0.491 2.268 0.558s0.32 0.050 0.463-0.016l0.476-0.246c-0.631-0.294-2.83-1.050-3.595-1.050-0.362 0-0.558 0.052-0.794 0.355-0.294 0.378-1.079 0.723-2.332 0.723-0.687 0-1.67-0.122-1.885-0.211-0.377-0.155-1.116-0.584-1.589-0.925-0.609-0.439-1.14-0.927-1.505-1.496-0.105-0.163-0.161-0.353-0.16-0.547 0.001-0.148 0.043-0.285 0.058-0.394 0.109 0.151 0.227 0.261 0.377 0.402 0.661 0.644 1.638 1.127 2.641 1.32 0.286 0.055 0.54 0.098 0.823 0.098 0.428 0 0.824-0.229 1.075-0.454l-0.394-0.458c-0.127 0.038-0.39 0.038-0.564 0.038-1.457 0-3.307-0.953-3.732-2.055-0.042-0.108-0.093-0.168-0.051-0.269 0.042-0.102 0.095-0.316 0.126-0.514 0.085 0.098 0.261 0.246 0.485 0.39 0.542 0.347 1.574 0.828 1.777 0.955 0.521-0.15 0.912-0.325 1.222-0.485 0.369-0.194 0.78-0.297 1.197-0.299 1.065 0 2.289 0.607 3.438 1.174l0.785-0.309c-1.020-0.717-3.239-1.72-4.473-1.72-0.728 0-1.412 0.532-1.9 0.532-0.598 0-2.312-0.835-2.312-1.532 0-0.536 1.109-0.839 2.893-1.059-0.31 0.459-0.602 0.93-0.875 1.412l0.454 0.252c2.794-4.046 5.7-6.673 8.144-8.273 0.888-0.582 1.090-0.921 1.401-1.556 0.757-1.548 1.472-2.738 2.714-2.738 0.58 0 1.054 0.325 1.379 0.729l0.899 0.268-0.91 0.616 0.931 0.37c-1.214 0.341-2.873 1.522-3.544 3.255-1.294 0.069-1.919 1.116-2.342 1.994-0.285 0.592-0.739 0.828-1.4 1.276l-5.29 3.688 0.728 0.1 4.888-3.273c0.964-0.65 1.423-1.13 1.653-1.592 0.454-0.906 0.942-1.58 1.9-1.58 0.471 0 0.976 0.202 1.379 0.583l0.857 0.28-0.936 0.572 0.785 0.482c-2.242 0.703-3.632 2.309-4.439 5.38l0.595 0.135c0.298-1.017 0.591-1.95 1.116-2.773 1.299-0.015 2.615-0.063 3.906-0.063 3.445 0 6.304 0.145 7.848 0.6l-0.546-0.948c-1.651-0.28-4.047-0.425-7.302-0.425-1.092 0-2.197 0.040-3.295 0.052 0.708-0.75 1.729-1.381 3.3-1.868l-1.115-0.614 1.238-0.687-1.687-0.628c-0.295-0.265-0.662-0.508-1.124-0.624 0.54-1.66 2.381-2.631 4.145-3.3l-1.236-0.504 1.247-0.682-1.919-0.613c-0.501-0.588-0.984-0.857-1.724-0.857-1.78 0-2.528 1.546-3.234 2.916-0.371 0.721-0.607 1.025-1.238 1.439-1.369 0.895-3.114 2.265-4.78 4.018-0.871-0.628-2.648-2.462-3.132-3.463-0.19 0.235-0.379 0.748-0.379 0.748 0.182 0.192 2.277 2.308 3.055 3.205l-0.176 0.197c-0.83 0.165-2.986 0.372-3.72 0.272l-0.412 0.731c0.548-0.054 2.69-0.306 3.579-0.358-0.272 0.33-0.536 0.667-0.791 1.011-2.755 0.313-4.595 0.878-4.595 1.896 0 0.168 0.067 0.358 0.067 0.538 0 0.426-0.159 0.583-0.462 0.774-0.197 0.124-0.21 0.21-0.126 0.328 0.085 0.119 0.51 0.748 0.51 0.871 0 0.203-0.203 0.409-0.366 0.59-0.143 0.16-0.138 0.203-0.025 0.405l0.799 1.698 0.85 0.614zM40.134 10.618c-0.176 0.185-0.331 0.383-0.461 0.592l-0.444-0.623c1.482-1.975 5.395-2.901 7.691-3.064v-1.059c-0.291 0.090-0.605 0.191-0.896 0.26-0.412 0.099-0.79 0.191-1.111 0.182s-0.581-0.136-0.701-0.308c-0.308-0.44-0.022-1.105 0.987-1.726l-0.796-0.661c-0.614 0.796-1.219 1.675-1.834 2.199-0.559 0.477-1.145 0.715-1.618 0.362-0.255-0.19-0.351-0.277-0.376-0.774 0.034-0.729 0.478-1.844 0.869-2.561l-0.942-0.111c-0.167 1.099-0.618 2.036-1.1 2.809-0.601 0.965-1.376 1.641-2.173 2.195l-0.523-0.515c0.644-0.38 1.45-0.998 2.005-1.849 0.643-0.989 1.165-2.212 1.166-3.324l2.724 0.258c-0.383 0.486-1.014 1.595-1.254 2.392-0.124 0.416-0.119 0.746 0.032 0.859 0.289 0.216 0.794-0.129 1.285-0.655 0.692-0.744 1.37-1.865 1.669-2.265l1.97 1.634c-0.876 0.464-1.724 0.994-1.556 1.292 0.154 0.271 0.716 0.19 1.33 0.001 0.509-0.157 0.999-0.37 1.461-0.635v2.663c-0.95-0.013-2.558 0.164-4.107 0.634 0.368 0.52 1.426 0.711 2.098 0.804l-0.337 2.161c-1.696-0.712-3.004-1.127-5.058-1.166l0.68-0.584c1.514 0.031 3.032 0.471 3.892 0.904l0.123-0.818c-0.775-0.102-1.751-0.543-2.164-1.042-0.674 0.253-1.313 0.57-1.851 0.956l-0.68 0.584z"></path>
      <path d="M32.017 17.483l0.437 0.554 0.983-2.067c-0.502-0.447-2.002-2.461-2.622-3.582-1.41-2.549-0.856-3.86-1.715-5.028-0.798-1.083-3.078-0.572-3.078-0.572l0.841-1.177-1.454 0.177 0.673-0.807c0.143-0.21 0.176-0.336 0.235-0.538 0.285-1.035 1.034-2.060 2.457-2.060 1.726 0 2.22 1.322 3.419 2.376 1.217 1.069 3.763 3.123 6.096 5.779 1.88 2.141 4.289 7.12 6.14 11.047-2.025-0.984-5.451-4.368-6.886-6.905l-0.678-0.078c1.541 2.92 4.849 6.318 8.121 8.169 0.594 1.266 1.11 2.358 1.5 3.12-2.69-1.446-6.825-5.046-9.080-7.534-1.95-2.151-4.607-6.254-5.515-8.575-0.334-0.855-1.027-0.564-0.673 0.303 0.857 2.099 2.833 5.185 4.897 7.728-0.481-0.211-1.079-0.497-1.399-0.641-0.11 0.18-0.382 0.535-0.662 0.828-0.323 0.336-0.656 0.607-0.759 0.702-0.227 0.211-0.395 0.227-0.547-0.008-0.071-0.111-0.218-0.311-0.294-0.657l-0.437-0.554c-0.235-0.294-1.337-1.799-1.672-2.302-0.336-0.504-0.774-1.043-1.48-1.043-0.875 0-1.176 0.966-1.244 1.849l0.58-0.252c0.135-0.547 0.403-0.833 0.664-0.833 0.185 0 0.412 0.269 0.412 0.471-0.083 0.235-0.235 0.723-0.311 1.101l0.572 0.194c0-0.278 0.118-0.781 0.278-1.043 0 0 0.16 0.135 0.218 0.244 0.038 0.071 0.32 0.5 0.647 1.075 0.292 0.512 0.616 1.144 0.916 1.648 0.144 0.242 0.309 0.459 0.42 0.63 0.147 0.224 0.28 0.383 0.42 0.462 0.132 0.075 0.273 0.076 0.387 0.076 0.369 0 0.54-0.122 0.791-0.338 0.471-0.403 0.874-0.966 1.294-1.472 0.14 0.054 0.278 0.113 0.413 0.178l0.573 0.267c0.382 0.181 0.767 0.355 1.155 0.522 0.871 0.979 1.797 1.907 2.774 2.78l1.519 9.19c0.123 0.798 0.727 0.909 1.143 0.484 0.471-0.483 0.864-1.034 1.178-1.235 0.314-0.203 0.83-0.068 1.401-0.068s0.897-0.112 0.572-1.066l-1.267-3.723-0.678-0.477 1.339 4.145c0.112 0.347 0 0.549-0.527 0.526s-0.717-0.166-0.837-0.616l-1.236-4.995-0.697-0.547 1.29 5.878c0.123 0.548 0 0.662-0.325 1.077s-0.728 0.493-0.829 0.022l-1.374-8.005c0.407 0.35 0.82 0.693 1.239 1.028l0.697 0.547c0.415 0.32 0.836 0.633 1.261 0.939l0.678 0.477c1.071 0.745 2.179 1.436 3.318 2.071-0.091-0.262-0.195-0.607-0.341-0.947-1.51-3.513-4.925-11.184-7.674-15.197l-0.444-0.623c-0.636-0.858-1.326-1.567-2.001-2.257l-0.523-0.516c-1.261-1.21-2.573-2.366-3.932-3.464-0.996-0.803-1.703-2.65-3.987-2.65-2.057 0-2.76 1.396-2.991 2.214-0.151 0.538-0.218 0.723-0.361 0.925l-1.306 1.552 1.541-0.122-0.782 1.295c0.448-0.094 3.152-0.636 3.708 0.235 0.673 1.054 0.214 2.199 1.475 4.596l0.546 0.948c0.61 0.973 1.289 1.903 2.031 2.78l-0.631 1.362zM9.612 17.836v0c0.201-0.103 0.566-0.246 1.085-0.244 0.439 0 0.614 0.142 0.858 0.287 0.154 0.098 0.299 0.21 0.431 0.335 0.271 0.242 0.193 0.465-0.020 0.633-0.11 0.086-0.201 0.191-0.479 0.37-0.134 0.087-0.364 0.227-0.521 0.294-0.276 0.114-0.396 0.127-0.497 0.127s-0.263-0.016-0.353-0.106l-0.703 0.43c0.209 0.163 0.45 0.22 0.854 0.22 0.454 0 0.818-0.098 1.266-0.276 0.583-0.229 1.238-0.68 1.455-0.804 0.444-0.254 0.894-0.419 1.373-0.419 0.426 0 0.903 0.252 1.437 0.506 0.633 0.302 1.404 0.6 2.113 0.6 0.425 0 0.901-0.063 1.401-0.164 0.884-0.18 1.837-0.479 2.769-0.794l-0.302-0.544c-0.227 0.084-1.006 0.304-1.843 0.489-0.693 0.152-1.395 0.29-1.761 0.29-0.297 0-0.65-0.023-0.964-0.119-0.533-0.162-1.011-0.33-1.011-0.757 0-0.297 0.128-0.504 0.485-0.648 0.581-0.235 1.486-0.219 1.962-0.219 0.090-0.096 0.449-0.529 0.449-0.529-0.235-0.051-0.687-0.119-1.157-0.119-0.598 0-1.147 0.076-1.604 0.267-0.426 0.178-0.759 0.435-1 0.783-0.096 0.137-0.197 0.269-0.343 0.269-0.24 0-0.661-0.196-1.099-0.196-0.19 0-0.353 0.040-0.521 0.040-0.443 0-1.020-0.322-1.534-0.596-0.325-0.173-0.658-0.335-1.045-0.335-0.198 0.005-0.393 0.046-0.577 0.121-0.341 0.148-0.66 0.34-0.95 0.573l0.345 0.234z"></path>
      <path d="M19.398 18.115c0 0-0.418-0.116-0.564-0.127 0.263-0.349 0.581-0.652 0.942-0.899 0.57-0.386 1.167-0.597 2.070-0.652 0.246-0.015 0.746-0.063 1.026-0.051 0.252 0.012 0.678 0.028 1.071 0.1 0.278 0.052 0.536 0.13 0.751 0.163 0.131 0.020 0.587 0.014 0.745-0.012 0.639-0.1 1.407-0.347 1.811-0.568l0.168 0.615c-0.863 0.441-1.839 0.865-2.732 0.865-0.455 0-0.938-0.035-1.388-0.076-0.794-0.076-1.481-0.182-1.717-0.182-0.643 0-1.567 0.299-2.183 0.823v0zM18.761 21.532l-0.812-0.371c1.126-0.57 2.847-1.142 3.552-1.255 0.706-0.111 1.514-0.196 1.979-0.353 0.213 0.538 0.634 1.114 1.24 1.114 0.221 0 0.584-0.167 0.949-0.328 0.41-0.181 0.822-0.378 1.035-0.474 0.231-0.102 0.979-0.43 1.613-0.713 0.317-0.144 0.633-0.293 0.946-0.446l0.426 0.231c-0.128 0.56-0.341 1.249-0.581 1.741-0.094 0.194-0.188 0.353-0.289 0.467-0.185 0.209-0.484 0.486-0.875 0.762-0.426 0.303-0.946 0.613-1.497 0.929-0.43 0.248-0.862 0.499-1.299 0.7l-0.227-0.413c0.675-0.382 1.361-0.865 1.965-1.312 0.285-0.211 0.562-0.425 0.759-0.606 0.147-0.134 0.239-0.244 0.312-0.353 0.179-0.263 0.471-0.779 0.56-1.026-0.252 0.123-1.204 0.573-1.63 0.796-0.481 0.253-1.261 0.65-1.698 0.858-0.344 0.162-0.651 0.251-0.871 0.251-0.488 0-0.71-0.351-0.83-0.564-0.308-0.55-0.639-0.601-1.508-0.612-1.009-0.012-2.393 0.405-3.217 0.976v0zM23.5 18.997c0 0-0.118-0.48-0.174-0.654 0 0 0.14-0.046 0.325-0.046 0.302 0 1.050 0.084 1.36 0.084 1.168 0 1.599-0.368 1.941-0.677 0.293-0.263 0.593-0.478 1.387-0.478 0.701 0 1.505 0.283 1.735 0.394l-0.050 0.638c-0.378-0.202-0.799-0.311-1.228-0.318-0.289 0-0.55 0.023-0.734 0.119-0.207 0.107-0.332 0.267-0.527 0.426-0.206 0.169-0.488 0.334-0.858 0.47s-0.827 0.229-1.509 0.229c-0.901-0.001-1.389-0.152-1.669-0.187v0z"></path>
      <path d="M16.104 23.813l0.538-0.223c0.493 0.191 1.206 0.407 1.702 0.407 0.299 0 0.545-0.107 0.748-0.198 0.159-0.071 1.952-0.951 2.843-1.274 0.283-0.102 0.57-0.159 0.71-0.159 0.213 0 0.225 0.095 0.285 0.194 0.168 0.269 1.492 2.158 1.627 2.304 1.123-0.345 2.273-0.85 2.936-1.487 0.691-0.667 1.266-1.438 1.82-2.035 0.214-0.231 0.478-0.439 0.609-0.509 0.574-0.306 2.36-0.331 3.111-0.298l-0.445 0.63c-1.323 0-2.063 0.136-2.396 0.387-0.141 0.106-0.353 0.319-0.556 0.583-0.452 0.589-0.945 1.395-1.142 1.553 0.387 0.269 0.811 0.504 1.483 0.504 1.121 0 1.924-0.701 2.364-1.097l0.377 0.224c-0.278 0.362-0.597 0.732-1.003 1.008-0.45 0.306-1.018 0.504-1.354 0.597-0.65-0.123-2.083-0.413-2.418-0.48-1.239 0.505-3.256 1.321-3.934 1.525-0.15 0.038-0.303 0.062-0.457 0.072-0.536 0.029-1.281 0.025-1.959 0.018-0.482-0.007-0.937-0.004-1.166-0.046l-0.598-0.624c0.527 0.1 0.733 0.131 1.225 0.131 1.166 0 1.916-0.195 2.164-0.258 0.208-0.053 0.242-0.173 0.18-0.362-0.098-0.299-0.271-0.583-0.534-0.887-0.179-0.195-0.376-0.374-0.589-0.533-0.16-0.11-0.317-0.137-0.757 0.013-0.408 0.139-1.674 0.824-2.219 1.114-0.27 0.144-0.48 0.186-0.964 0.071-0.513-0.121-1.739-0.569-2.231-0.867v0zM19.613 9.767c0.122 0 0.239-0.048 0.325-0.135s0.134-0.203 0.134-0.325c0-0.122-0.048-0.239-0.134-0.325s-0.203-0.135-0.325-0.135c-0.122 0-0.239 0.048-0.325 0.135s-0.135 0.203-0.135 0.325c0 0.122 0.048 0.239 0.135 0.325s0.203 0.135 0.325 0.135v0z"></path>
    </symbol>
    <symbol id="icon-apple" viewBox="0 0 26 32">
    <path d="M25.718 24.962c-0.461 1.064-1.006 2.044-1.638 2.945-0.861 1.228-1.566 2.078-2.11 2.55-0.842 0.775-1.745 1.171-2.712 1.194-0.694 0-1.531-0.197-2.505-0.598-0.977-0.399-1.875-0.596-2.697-0.596-0.861 0-1.785 0.197-2.773 0.596-0.989 0.401-1.787 0.609-2.396 0.63-0.927 0.040-1.851-0.369-2.773-1.226-0.589-0.513-1.325-1.393-2.207-2.64-0.946-1.331-1.724-2.875-2.334-4.635-0.653-1.901-0.98-3.742-0.98-5.524 0-2.042 0.441-3.802 1.325-5.278 0.694-1.185 1.618-2.12 2.775-2.807s2.406-1.036 3.751-1.059c0.736 0 1.702 0.228 2.901 0.675 1.196 0.449 1.964 0.677 2.301 0.677 0.252 0 1.105-0.266 2.552-0.797 1.368-0.492 2.523-0.696 3.469-0.616 2.563 0.207 4.489 1.217 5.769 3.037-2.292 1.389-3.426 3.334-3.404 5.83 0.021 1.944 0.726 3.561 2.112 4.846 0.628 0.596 1.33 1.057 2.11 1.384-0.169 0.491-0.348 0.961-0.538 1.412zM19.84 1.83c0 1.524-0.557 2.946-1.666 4.263-1.339 1.565-2.958 2.47-4.715 2.327-0.022-0.183-0.035-0.375-0.035-0.577 0-1.463 0.637-3.028 1.767-4.308 0.564-0.648 1.282-1.187 2.153-1.617 0.869-0.423 1.691-0.658 2.463-0.698 0.023 0.204 0.032 0.407 0.032 0.609v0z"></path>
    </symbol>
   <symbol id="icon-beco" viewBox="0 0 49 32">
     <path d="M36.497 16.003c-0.079-0.084-0.173-0.153-0.277-0.203-0.743-0.444-1.472-0.91-2.234-1.315-0.529-0.274-1.080-0.505-1.646-0.692-0.692-0.238-1.091-0.768-0.999-1.491 0.021-0.106 0.014-0.216-0.019-0.319s-0.093-0.196-0.172-0.27c-0.259-0.257-0.243-0.307 0.129-0.52-0.070-0.148-0.127-0.302-0.172-0.459-0.020-0.116-0.007-0.236 0.036-0.346 0.116-0.296 0.268-0.577 0.379-0.874 0.084-0.23 0-0.368-0.277-0.372-0.775-0.025-1.534-0.223-2.223-0.578-0.37-0.159-0.732-0.338-1.083-0.535-0.581-0.368-1.16-0.314-1.748-0.071-0.12 0.050-0.199 0.198-0.297 0.302l0.053 0.098-0.968-0.061c-0.217-0.014-0.462-0.098-0.646-0.026-0.329 0.127-0.631 0.077-0.946 0.018l-1.367-0.261c0.112 0.333-0.072 0.313-0.242 0.277-0.277-0.047-0.564-0.119-0.849-0.158-0.205-0.029-0.415-0.024-0.707-0.036l0.296 0.39c-0.536 0.219-1.125 0.273-1.692 0.155s-1.085-0.403-1.489-0.818c-0.83-0.899-1.058-2.024-1.158-3.181-0.126-1.454 0.237-2.809 0.899-4.095 0.069-0.156 0.128-0.315 0.177-0.479l-0.111-0.080c-0.175 0.095-0.342 0.203-0.499 0.325-0.754 0.658-1.256 1.558-1.419 2.546-0.091 0.553-0.069 1.124-0.122 1.685-0.010 0.111-0.127 0.213-0.195 0.318-0.086-0.093-0.232-0.18-0.243-0.277-0.046-0.398-0.053-0.802-0.065-1.203-0.008-0.235 0-0.469 0-0.79-0.165 0.108-0.306 0.25-0.411 0.417s-0.173 0.355-0.199 0.551c-0.231 1.156-0.062 2.243 0.618 3.231 0.083 0.141 0.157 0.288 0.221 0.438l-0.138 0.083c-0.191-0.204-0.367-0.421-0.526-0.651-0.206-0.344-0.355-0.723-0.553-1.076-0.085-0.122-0.185-0.233-0.296-0.332-0.054 0.154-0.112 0.306-0.159 0.461-0.006 0.046-0.003 0.093 0.010 0.138 0.129 0.96 0.573 1.85 1.263 2.53 0.812 0.812 1.783 1.373 2.826 1.83 0.112 0.050 0.286 0.162 0.285 0.242 0.015 0.493-0.021 0.986-0.106 1.472-0.198 0.877-1.068 1.165-1.806 0.643-0.456-0.324-0.611-0.332-1.007 0.090s-0.902 0.723-1.461 0.871c-0.509 0.138-1.014 0.307-1.521 0.476-0.262 0.084-0.518 0.189-0.764 0.313-0.095 0.050-0.148 0.184-0.22 0.277l0.259 0.181-0.415 0.286 0.288 0.231c-0.030 0.040-0.055 0.083-0.075 0.129-0.030 0.097-0.053 0.196-0.079 0.295 0.108 0.019 0.227 0.077 0.319 0.050 0.218-0.073 0.431-0.163 0.635-0.27 0.845-0.415 1.701-0.83 2.528-1.277s1.582-0.372 2.386 0.079c0.452 0.253 0.982 0.382 1.488 0.523 0.427 0.119 0.82-0.024 1.162-0.299 0.304-0.246 0.603-0.499 0.909-0.745 0.233-0.201 0.512-0.34 0.813-0.405s0.613-0.052 0.908 0.037c0.321 0.103 0.636 0.225 0.942 0.366 0.606 0.253 1.194 0.553 1.813 0.766 0.951 0.346 1.989 0.376 2.959 0.086 0.78-0.245 1.42-0.181 1.936 0.494 0.25 0.324 0.553 0.415 0.976 0.289 0.95-0.288 1.888-0.266 2.775 0.25 0.398 0.232 0.797 0.466 1.209 0.669 0.385 0.185 0.78 0.348 1.183 0.488 0.133 0.031 0.271 0.021 0.398-0.028s0.236-0.136 0.313-0.248l0.429-0.167c-0.062-0.134-0.135-0.264-0.218-0.386v0z"></path>
     <path d="M45.97 20.652c-0.243-0.172-0.505-0.314-0.781-0.423-0.389-0.138-0.801-0.203-1.196-0.321-0.97-0.286-2.002-0.286-2.972 0-1.674 0.491-3.043 1.454-3.797 3.113-0.088 0.195-0.079 0.441-0.187 0.621-0.415 0.705-0.344 1.487-0.415 2.578 0.060 0.362 0.172 1.037 0.285 1.712 0.188 1.113 0.863 1.924 1.728 2.555 0.887 0.646 1.809 1.208 2.986 1.302 0.845 0.069 1.653 0.217 2.52 0.043 0.941-0.188 1.685-0.643 2.361-1.261 0.253-0.231 0.44-0.534 0.685-0.776 0.909-0.896 1.328-2.018 1.497-3.248s-0.058-2.362-0.52-3.495c-0.438-1.093-1.26-1.792-2.192-2.4zM44.781 28.259c-0.788 0.603-1.782 0.872-2.766 0.748-1.272-0.156-1.92-0.898-2.351-2.057-0.376-1.006-0.181-1.891 0.169-2.805 0.068-0.172 0.173-0.326 0.308-0.451 0.544-0.502 1.061-0.956 1.9-1.050 0.674-0.076 1.289 0.050 1.889 0.183 0.888 0.196 1.375 0.941 1.65 1.759 0.166 0.492 0.176 1.037 0.253 1.541-0.083 0.871-0.415 1.664-1.053 2.137v-0.006z"></path>
     <path d="M25.982 4.825c-0.066 0.082-0.087 0.317-0.032 0.36 0.241 0.169 0.491 0.324 0.751 0.462 0.076 0.118 0.167 0.284 0.277 0.292 0.39 0.032 0.784 0.012 1.206 0.012l-0.657 0.784 0.264 0.115-0.429 0.336c0.104 0.061 0.156 0.1 0.214 0.126 0.472 0.213 0.952 0.408 1.414 0.639 0.726 0.353 1.504 0.587 2.304 0.692 0.321 0.047 0.537-0.039 0.624-0.378 0.048-0.178 0.115-0.35 0.199-0.515 0.188-0.405 0.455-0.769 0.785-1.071s0.716-0.535 1.137-0.686c0.978-0.358 1.44-1.033 1.339-2.026-0.030-0.303-0.184-0.444-0.47-0.423-0.322 0.018-0.642 0.057-0.958 0.118-0.541 0.111-0.982 0.015-1.368-0.415-0.433-0.491-0.968-0.816-1.674-0.712-0.426 0.054-0.858-0.040-1.223-0.267-0.259-0.147-0.537-0.315-0.819-0.346-0.913-0.126-1.839 0.102-2.589 0.636-0.111 0.1-0.214 0.21-0.306 0.328 0.209 0.066 0.348 0.107 0.483 0.158 0.069 0.026 0.187 0.077 0.185 0.112-0.012 0.3 0.228 0.277 0.401 0.325 0.138 0.040 0.277 0.064 0.408 0.095l0.014 0.095c-0.317 0.224-0.638 0.441-0.947 0.675-0.195 0.139-0.374 0.299-0.532 0.479zM35.082 3.957c0 0.076 0.047 0.235-0.011 0.296-0.109 0.121-0.255 0.203-0.415 0.232-0.119 0.022-0.241 0-0.345-0.061s-0.183-0.157-0.222-0.271l0.993-0.196z"></path>
     <path d="M13.409 17.094c0.16-0.022 0.317-0.064 0.468-0.123 0.445-0.241 0.885-0.491 1.313-0.761 0.581-0.366 1.194-0.609 1.889-0.553 0.333 0.034 0.664 0.086 0.992 0.156 0.931 0.185 1.721-0.025 2.379-0.744 0.362-0.368 0.747-0.713 1.152-1.033 0.188-0.159 0.147-0.303-0.043-0.354-0.214-0.071-0.443-0.079-0.661-0.022-0.256 0.1-0.488 0.255-0.678 0.454-0.909 0.931-1.936 1.361-3.248 0.947-0.429-0.133-0.873-0.217-1.321-0.25-0.295-0.034-0.594 0.013-0.863 0.138-0.661 0.358-1.314 0.758-1.455 1.618l0.225 0.087-0.195 0.335 0.046 0.105z"></path>
     <path d="M32.918 12.167c-0.321-0.021-0.639-0.082-0.958-0.106-0.22-0.017-0.313 0.104-0.286 0.324 0.020 0.25 0.126 0.485 0.302 0.665s0.408 0.291 0.658 0.316c0.331 0.037 0.665 0.030 0.997 0.061 0.81 0.073 1.622 0.147 2.432 0.243 0.252 0.030 0.49 0.12 0.432-0.27l0.53 0.091-0.122-0.368 0.538-0.051c-0.034-0.144-0.113-0.274-0.225-0.371s-0.253-0.155-0.4-0.167c-0.792-0.123-1.591-0.213-2.389-0.289-0.501-0.048-1.003-0.043-1.508-0.078z"></path>
     <path d="M14.907 27.294c0.894-0.095 1.788-0.174 2.683-0.252 1.492-0.13 2.985-0.249 4.476-0.382 0.436-0.039 0.537-0.138 0.573-0.582 0.091-1.024-0.031-2.055-0.361-3.029-0.426-1.23-1.281-2.184-2.387-2.849-1.138-0.685-2.408-0.888-3.734-0.705-1 0.126-1.938 0.552-2.69 1.223-0.422 0.376-0.766 0.841-1.126 1.281-0.634 0.775-0.902 1.704-1.026 2.669-0.137 1.041-0.071 2.098 0.195 3.113 0.354 1.368 1.082 2.49 2.227 3.257 0.2 0.134 0.408 0.255 0.624 0.361 0.116 0.058 0.234 0.111 0.353 0.159 0.848 0.342 1.762 0.489 2.675 0.429 0.078 0 0.156 0.008 0.232 0 0.026-0.001 0.052-0.004 0.077-0.008 0.769-0.122 1.575-0.138 2.299-0.4 1.205-0.429 1.952-1.415 2.562-2.503 0.108-0.19 0.082-0.322-0.104-0.43-0.358-0.207-0.705-0.438-1.077-0.618-0.815-0.394-0.83-0.393-1.447 0.277-0.407 0.432-0.955 0.703-1.545 0.765-0.369 0.051-0.735 0.091-1.098 0.122-1.106 0.093-2.019-0.257-2.69-1.162-0.32-0.438-0.224-0.683 0.311-0.734zM14.227 24.258c0.212-0.88 0.83-1.355 1.624-1.68 0.764-0.317 1.62-0.333 2.396-0.044 0.856 0.297 1.452 0.856 1.636 1.863-0.568 0.035-1.093 0.071-1.618 0.1-1.228 0.066-2.457 0.13-3.686 0.192-0.351 0.019-0.434-0.083-0.351-0.43v0z"></path>
     <path d="M9.717 27.414c-0.189-0.602-0.487-1.107-1.011-1.481-0.138-0.098-0.3-0.214-0.106-0.415 0.306-0.311 0.545-0.681 0.702-1.088s0.229-0.842 0.21-1.278c0-0.628-0.118-1.159-0.533-1.618-0.968-1.072-2.091-1.81-3.614-1.779-0.83 0.018-1.674-0.044-2.51-0.061-0.562-0.011-1.125 0-1.686-0.010-0.228 0-0.314 0.077-0.317 0.326-0.011 1.506-0.044 3.014-0.069 4.521-0.021 1.264-0.037 2.527-0.062 3.791 0 0.23-0.061 0.458-0.053 0.692 0.022 0.642 0.065 1.282 0.098 1.924h-0.036c0 0.208 0.014 0.415 0 0.622-0.025 0.284 0.069 0.404 0.368 0.364 0.215-0.030 0.433-0.035 0.65-0.015 1.552 0.138 3.102 0.053 4.647-0.076 1.687-0.138 2.811-1.035 3.35-2.649 0.182-0.578 0.172-1.199-0.029-1.77v0zM3.623 22.941c0-0.277 0.109-0.415 0.425-0.372 0.266 0.021 0.533 0.023 0.799 0.007 0.303 0.029 0.715 0.060 1.125 0.112 0.264 0.033 0.48 0.195 0.484 0.459 0.004 0.338-0.043 0.674-0.138 0.999-0.039 0.074-0.095 0.137-0.163 0.185s-0.147 0.079-0.229 0.091c-0.672 0.075-1.35 0.108-2.026 0.154-0.037 0.008-0.074 0.006-0.11-0.004s-0.069-0.029-0.096-0.055c-0.027-0.026-0.048-0.057-0.060-0.093s-0.016-0.073-0.010-0.11c0-0.455-0.003-0.914 0.001-1.373zM5.826 29.083c-0.393 0.069-0.798 0.073-1.198 0.106v-0.058c-0.266 0-0.53 0-0.794 0-0.181 0-0.238-0.082-0.231-0.255 0.018-0.472 0.037-0.943 0.032-1.414-0.007-0.043-0.005-0.086 0.006-0.128s0.032-0.080 0.060-0.113c0.028-0.033 0.063-0.059 0.103-0.077s0.082-0.026 0.125-0.026c0.71-0.062 1.42-0.13 2.131-0.16 0.322-0.014 0.628 0.429 0.674 0.891 0.065 0.676-0.241 1.116-0.909 1.232z"></path>
     <path d="M35.237 28.346c-0.523-0.254-1.080-0.443-1.627-0.649-0.277-0.108-0.49 0-0.7 0.217-0.303 0.327-0.642 0.62-1.010 0.873-0.649 0.423-1.397 0.443-2.134 0.342-0.553-0.075-1.137-0.12-1.58-0.516-1.094-0.978-1.364-2.213-1.043-3.596 0.066-0.292 0.176-0.571 0.326-0.83 0.177-0.302 0.369-0.64 0.646-0.83 1.194-0.815 2.92-0.983 4.16-0.115 0.137 0.105 0.286 0.194 0.444 0.264 0.055 0.024 0.114 0.037 0.174 0.037s0.119-0.012 0.174-0.037c0.571-0.426 1.134-0.864 1.68-1.322 0.037-0.054 0.060-0.116 0.066-0.181s-0.004-0.13-0.030-0.19c-0.299-0.346-0.575-0.768-0.961-0.968-1.156-0.606-2.332-1.225-3.698-1.083-1.324-0.018-2.458 0.481-3.539 1.154-1.026 0.625-1.763 1.63-2.050 2.797-0.143 0.51-0.251 1.029-0.322 1.553-0.102 0.83-0.123 1.653 0.16 2.458 0.225 0.653 0.542 1.271 0.942 1.834 0.386 0.537 0.786 1.040 1.342 1.408 1.472 0.968 3.076 1.202 4.794 0.918 1.754-0.29 3.102-1.155 4.011-2.689 0.261-0.434 0.242-0.621-0.225-0.849z"></path>
   </symbol>
   <symbol id="icon-amazon" viewBox="0 0 107 32">
     <path d="M66.407 25.025c-6.141 4.548-15.042 6.975-22.705 6.975-10.745 0-20.419-3.994-27.738-10.636-0.575-0.522-0.060-1.234 0.63-0.827 7.898 4.618 17.664 7.396 27.751 7.396 6.803 0 14.287-1.415 21.169-4.35 1.040-0.444 1.909 0.684 0.892 1.442z"></path>
     <path d="M68.959 22.090c-0.782-1.008-5.189-0.476-7.167-0.24-0.602 0.074-0.695-0.453-0.152-0.832 3.51-2.482 9.269-1.766 9.94-0.934 0.672 0.837-0.175 6.638-3.473 9.406-0.506 0.425-0.989 0.199-0.764-0.365 0.741-1.858 2.401-6.023 1.615-7.035z"></path>
     <path d="M61.931 3.494v-2.413c0-0.365 0.276-0.61 0.607-0.61h10.75c0.345 0 0.621 0.25 0.621 0.61v2.066c-0.005 0.347-0.294 0.8-0.81 1.516l-5.57 7.992c2.070-0.051 4.255 0.259 6.132 1.322 0.423 0.24 0.538 0.592 0.57 0.938v2.575c0 0.351-0.386 0.763-0.791 0.55-3.307-1.743-7.7-1.932-11.357 0.018-0.373 0.203-0.764-0.203-0.764-0.555v-2.445c0-0.393 0.005-1.063 0.396-1.659l6.454-9.3h-5.617c-0.345 0-0.621-0.245-0.621-0.606z"></path>
     <path d="M22.716 18.549h-3.271c-0.313-0.023-0.561-0.259-0.584-0.559v-16.867c0-0.337 0.281-0.606 0.63-0.606h3.050c0.317 0.014 0.57 0.259 0.593 0.564v2.205h0.060c0.796-2.131 2.291-3.125 4.305-3.125 2.047 0 3.326 0.994 4.246 3.125 0.791-2.131 2.59-3.125 4.517-3.125 1.371 0 2.87 0.569 3.786 1.844 1.035 1.419 0.823 3.481 0.823 5.288l-0.005 10.645c0 0.337-0.281 0.61-0.63 0.61h-3.266c-0.327-0.023-0.589-0.287-0.589-0.61v-8.939c0-0.712 0.064-2.487-0.092-3.162-0.244-1.132-0.975-1.451-1.923-1.451-0.791 0-1.619 0.532-1.955 1.382s-0.304 2.274-0.304 3.231v8.939c0 0.337-0.281 0.61-0.63 0.61h-3.266c-0.331-0.023-0.589-0.287-0.589-0.61l-0.005-8.939c0-1.881 0.308-4.65-2.015-4.65-2.351 0-2.259 2.699-2.259 4.65v8.939c0 0.337-0.281 0.61-0.63 0.61z"></path>
     <path d="M83.164 0.162c4.853 0 7.48 4.188 7.48 9.513 0 5.145-2.903 9.226-7.48 9.226-4.766 0-7.36-4.188-7.36-9.406 0-5.251 2.627-9.332 7.36-9.332zM83.192 3.605c-2.41 0-2.562 3.3-2.562 5.357 0 2.062-0.032 6.462 2.535 6.462 2.535 0 2.654-3.55 2.654-5.713 0-1.424-0.060-3.125-0.488-4.474-0.368-1.174-1.099-1.632-2.139-1.632z"></path>
     <path d="M96.936 18.549h-3.257c-0.327-0.023-0.589-0.287-0.589-0.61l-0.005-16.871c0.028-0.31 0.3-0.55 0.631-0.55h3.031c0.285 0.014 0.52 0.208 0.584 0.471v2.579h0.060c0.915-2.307 2.199-3.407 4.457-3.407 1.467 0 2.898 0.532 3.818 1.988 0.856 1.35 0.856 3.619 0.856 5.251v10.617c-0.037 0.296-0.309 0.532-0.631 0.532h-3.28c-0.299-0.023-0.548-0.245-0.58-0.532v-9.161c0-1.844 0.212-4.544-2.047-4.544-0.795 0-1.527 0.536-1.891 1.35-0.46 1.031-0.519 2.057-0.519 3.194v9.083c-0.005 0.337-0.29 0.61-0.639 0.61z"></path>
     <path d="M53.361 10.493v-0.712c-2.369 0-4.867 0.508-4.867 3.31 0 1.419 0.736 2.38 1.992 2.38 0.915 0 1.743-0.569 2.263-1.493 0.644-1.137 0.612-2.205 0.612-3.485zM56.659 18.503c-0.216 0.194-0.529 0.208-0.773 0.079-1.086-0.906-1.283-1.327-1.877-2.191-1.794 1.84-3.068 2.39-5.391 2.39-2.755 0-4.894-1.706-4.894-5.121 0-2.667 1.435-4.484 3.487-5.371 1.776-0.786 4.255-0.924 6.15-1.142v-0.425c0-0.781 0.060-1.706-0.4-2.38-0.396-0.606-1.159-0.855-1.835-0.855-1.247 0-2.355 0.643-2.627 1.974-0.055 0.296-0.271 0.587-0.57 0.601l-3.169-0.342c-0.267-0.060-0.566-0.277-0.488-0.689 0.727-3.864 4.204-5.029 7.314-5.029 1.592 0 3.671 0.425 4.927 1.636 1.592 1.493 1.44 3.485 1.44 5.653v5.121c0 1.539 0.635 2.214 1.233 3.046 0.207 0.296 0.253 0.652-0.014 0.874-0.667 0.559-1.854 1.599-2.507 2.182l-0.005-0.009z"></path>
     <path d="M10.485 10.493v-0.712c-2.364 0-4.862 0.508-4.862 3.31 0 1.419 0.731 2.38 1.987 2.38 0.92 0 1.743-0.569 2.263-1.493 0.644-1.137 0.612-2.205 0.612-3.485zM13.783 18.503c-0.216 0.194-0.529 0.208-0.773 0.079-1.086-0.906-1.279-1.327-1.877-2.191-1.794 1.84-3.064 2.39-5.391 2.39-2.751 0-4.894-1.706-4.894-5.121 0-2.667 1.44-4.484 3.487-5.371 1.776-0.786 4.255-0.924 6.15-1.142v-0.425c0-0.781 0.060-1.706-0.396-2.38-0.4-0.606-1.164-0.855-1.835-0.855-1.247 0-2.36 0.643-2.631 1.974-0.055 0.296-0.271 0.587-0.566 0.601l-3.174-0.342c-0.267-0.060-0.561-0.277-0.488-0.689 0.731-3.864 4.204-5.029 7.314-5.029 1.592 0 3.671 0.425 4.927 1.636 1.592 1.493 1.44 3.485 1.44 5.653v5.121c0 1.539 0.635 2.214 1.233 3.046 0.212 0.296 0.258 0.652-0.009 0.874-0.667 0.559-1.854 1.599-2.507 2.182l-0.009-0.009z"></path>
   </symbol>
   <symbol id="icon-google" viewBox="0 0 98 32">
     <path d="M42.066 16.84c0 4.604-3.602 7.996-8.022 7.996s-8.022-3.392-8.022-7.996c0-4.636 3.602-7.996 8.022-7.996s8.022 3.36 8.022 7.996zM38.554 16.84c0-2.877-2.087-4.845-4.51-4.845s-4.51 1.968-4.51 4.845c0 2.848 2.087 4.845 4.51 4.845s4.51-2.001 4.51-4.845z"></path>
     <path d="M59.371 16.84c0 4.604-3.602 7.996-8.022 7.996s-8.022-3.392-8.022-7.996c0-4.633 3.602-7.996 8.022-7.996s8.022 3.36 8.022 7.996zM55.859 16.84c0-2.877-2.087-4.845-4.51-4.845s-4.51 1.968-4.51 4.845c0 2.848 2.087 4.845 4.51 4.845s4.51-2.001 4.51-4.845z"></path>
     <path d="M75.955 9.327v14.356c0 5.905-3.483 8.317-7.6 8.317-3.876 0-6.208-2.592-7.088-4.712l3.057-1.273c0.544 1.302 1.878 2.837 4.027 2.837 2.635 0 4.269-1.626 4.269-4.687v-1.15h-0.123c-0.786 0.97-2.3 1.817-4.211 1.817-3.998 0-7.661-3.483-7.661-7.964 0-4.514 3.663-8.025 7.661-8.025 1.907 0 3.421 0.847 4.211 1.788h0.123v-1.302h3.335v-0.004zM72.869 16.869c0-2.816-1.878-4.874-4.269-4.874-2.423 0-4.452 2.059-4.452 4.874 0 2.787 2.030 4.817 4.452 4.817 2.39 0 4.269-2.030 4.269-4.817z"></path>
     <path d="M81.453 0.912v23.434h-3.425v-23.434h3.425z"></path>
     <path d="M94.8 19.472l2.725 1.817c-0.88 1.302-2.999 3.544-6.662 3.544-4.543 0-7.935-3.511-7.935-7.996 0-4.755 3.421-7.996 7.542-7.996 4.15 0 6.179 3.302 6.843 5.087l0.364 0.909-10.69 4.427c0.818 1.604 2.091 2.423 3.876 2.423 1.788 0 3.028-0.88 3.937-2.214zM86.41 16.595l7.146-2.967c-0.393-0.999-1.575-1.694-2.967-1.694-1.785 0-4.269 1.575-4.178 4.662z"></path>
     <path d="M13.058 14.76v-3.392h11.432c0.112 0.591 0.169 1.291 0.169 2.048 0 2.545-0.696 5.693-2.938 7.935-2.181 2.271-4.968 3.483-8.66 3.483-6.843 0-12.597-5.574-12.597-12.416s5.754-12.416 12.597-12.416c3.785 0 6.482 1.485 8.508 3.421l-2.394 2.394c-1.453-1.363-3.421-2.423-6.118-2.423-4.997 0-8.905 4.027-8.905 9.024s3.908 9.024 8.905 9.024c3.241 0 5.087-1.302 6.27-2.484 0.959-0.959 1.59-2.329 1.839-4.2l-8.108 0.004z"></path>
   </symbol>
   <symbol id="icon-walmart" viewBox="0 0 130 32">
     <path d="M1.404 6.991c0 0 3.157 12.936 3.661 15.035 0.588 2.451 1.648 3.353 4.702 2.744l1.971-8.020c0.5-1.992 0.835-3.412 1.156-5.439h0.056c0.226 2.046 0.547 3.453 0.958 5.446 0 0 0.802 3.641 1.213 5.553 0.412 1.912 1.559 3.117 4.551 2.461l4.697-17.779h-3.792l-1.603 7.687c-0.431 2.238-0.822 3.986-1.124 6.033h-0.053c-0.274-2.026-0.623-3.706-1.061-5.886l-1.67-7.834h-3.951l-1.786 7.637c-0.506 2.321-0.979 4.194-1.28 6.172h-0.054c-0.308-1.862-0.719-4.217-1.163-6.464 0 0-1.061-5.462-1.433-7.345l-3.994-0.001zM37.555 6.991v17.779h3.611v-17.78l-3.611 0.001zM88.405 6.991v13.116c0 1.808 0.34 3.075 1.068 3.849 0.636 0.677 1.684 1.115 2.939 1.115 1.068 0 2.118-0.202 2.613-0.387l-0.047-2.822c-0.368 0.091-0.792 0.163-1.371 0.163-1.23 0-1.643-0.788-1.643-2.411v-5.018h3.145v-3.402h-3.145v-4.204l-3.56-0zM29.486 11.113c-2.244 0-4.025 0.63-4.996 1.191l0.711 2.433c0.889-0.56 2.303-1.024 3.643-1.024 2.218-0.006 2.581 1.254 2.581 2.062v0.191c-4.833-0.007-7.886 1.665-7.886 5.074 0 2.081 1.554 4.032 4.256 4.032 1.663 0 3.055-0.663 3.888-1.726h0.082c0 0 0.552 2.308 3.594 1.426-0.16-0.961-0.212-1.985-0.212-3.219v-4.75c0-3.027-1.293-5.69-5.661-5.69v-0zM51.084 11.113c-2.259 0-3.275 1.145-3.89 2.116h-0.053v-1.815h-3.446v13.357h3.63v-7.833c0-0.367 0.042-0.756 0.17-1.093 0.301-0.789 1.034-1.711 2.206-1.711 1.465 0 2.15 1.238 2.15 3.025v7.613h3.626v-7.928c0-0.351 0.048-0.773 0.151-1.083 0.298-0.897 1.089-1.627 2.178-1.627 1.485 0 2.197 1.217 2.197 3.319v7.319h3.628v-7.867c0-4.149-2.107-5.791-4.485-5.791-1.053 0-1.884 0.264-2.636 0.726-0.632 0.388-1.197 0.938-1.692 1.664h-0.053c-0.575-1.44-1.924-2.389-3.682-2.389l0.001-0zM71.015 11.113c-2.243 0-4.024 0.63-4.996 1.191l0.712 2.433c0.888-0.56 2.303-1.024 3.642-1.024 2.216-0.006 2.58 1.254 2.58 2.062v0.191c-4.832-0.007-7.885 1.665-7.885 5.074 0 2.081 1.555 4.032 4.258 4.032 1.662 0 3.054-0.663 3.886-1.726h0.082c0 0 0.552 2.308 3.594 1.426-0.16-0.961-0.211-1.985-0.211-3.219v-4.75c0-3.027-1.293-5.69-5.662-5.69v-0zM86.088 11.113c-1.39 0-2.971 0.897-3.635 2.82h-0.101v-2.519h-3.267v13.357h3.725v-6.84c0-0.369 0.022-0.691 0.081-0.986 0.275-1.433 1.371-2.349 2.944-2.349 0.432 0 0.741 0.047 1.075 0.095v-3.497c-0.28-0.057-0.472-0.083-0.821-0.083l-0 0zM31.541 18.333v1.666c0 0.247-0.021 0.501-0.090 0.723-0.279 0.925-1.238 1.707-2.437 1.707-0.999 0-1.793-0.567-1.793-1.767 0-1.835 2.020-2.342 4.319-2.33h-0zM73.070 18.333v1.666c0 0.247-0.022 0.501-0.090 0.723-0.279 0.925-1.238 1.707-2.436 1.707-0.999 0-1.793-0.567-1.793-1.767 0-1.835 2.020-2.342 4.319-2.33h-0z"></path>
     <path d="M114.63 0.562c-1.166 0-2.092 0.651-2.092 1.443l0.708 8.015c0.079 0.483 0.67 0.855 1.385 0.855 0.717-0.001 1.306-0.373 1.386-0.855l0.711-8.015c0-0.792-0.929-1.443-2.096-1.443l-0.002-0zM103.095 6.991c-0.605 0.014-1.293 0.473-1.73 1.231-0.584 1.009-0.481 2.138 0.203 2.533l7.295 3.397c0.455 0.169 1.074-0.154 1.433-0.772 0-0 0-0 0-0 0.36-0.621 0.333-1.319-0.047-1.629l-6.588-4.621c-0.171-0.099-0.364-0.144-0.565-0.139l-0.001-0zM126.166 6.991c-0.201-0.005-0.393 0.040-0.564 0.139l-6.589 4.621c-0.377 0.31-0.405 1.008-0.047 1.629v0c0.36 0.618 0.976 0.942 1.433 0.772l7.298-3.397c0.688-0.396 0.785-1.524 0.205-2.533-0.439-0.758-1.128-1.216-1.733-1.231l-0.003-0zM109.136 17.567c-0.094-0.001-0.186 0.013-0.272 0.046l-7.295 3.393c-0.684 0.397-0.787 1.526-0.203 2.537 0.583 1.008 1.611 1.487 2.295 1.091l6.589-4.617c0.379-0.314 0.407-1.011 0.047-1.632l0.004 0.001c-0.292-0.505-0.756-0.813-1.165-0.819v0zM120.129 17.567c-0.409 0.006-0.871 0.314-1.164 0.819l0.003-0.001c-0.358 0.62-0.331 1.318 0.047 1.632l6.589 4.617c0.683 0.395 1.712-0.084 2.297-1.091 0.581-1.011 0.483-2.139-0.205-2.537l-7.295-3.393c-0.086-0.032-0.177-0.047-0.272-0.046v-0zM114.629 20.889c-0.714 0.001-1.304 0.372-1.382 0.853l-0.708 8.015c0 0.794 0.926 1.443 2.092 1.443 1.168 0 2.096-0.65 2.096-1.443l-0.71-8.015c-0.080-0.482-0.669-0.852-1.386-0.853h-0.003z"></path>
   </symbol>
<!-- =====   FOOTER   ===== -->
   
  </defs>
</svg>
